<svg width="32" height="32" viewBox="0 0 32 32" fill="none" xmlns="http://www.w3.org/2000/svg">
<path d="M4 8C4 7.44772 4.44772 7 5 7H27C27.5523 7 28 7.44772 28 8V11C28 11.5523 27.5523 12 27 12H5C4.44772 12 4 11.5523 4 11V8Z" fill="#2DD4BF"/>
<path d="M4 14C4 13.4477 4.44772 13 5 13H27C27.5523 13 28 13.4477 28 14V17C28 17.5523 27.5523 18 27 18H5C4.44772 18 4 17.5523 4 17V14Z" fill="url(#paint0_linear_1)"/>
<path d="M4 20C4 19.4477 4.44772 19 5 19H27C27.5523 19 28 19.4477 28 20V23C28 23.5523 27.5523 24 27 24H5C4.44772 24 4 23.5523 4 23V20Z" fill="url(#paint1_linear_2)"/>
<path d="M12 18L12 12L20 12L20 18L12 18Z" fill="#293548"/>
<path d="M14 17L14 13L18 13L18 17L14 17Z" fill="#2DD4BF"/>
<defs>
<linearGradient id="paint0_linear_1" x1="4" y1="13" x2="28" y2="13" gradientUnits="userSpaceOnUse">
<stop stop-color="#2E3B55"/>
<stop offset="1" stop-color="#212C40"/>
</linearGradient>
<linearGradient id="paint1_linear_2" x1="4" y1="19" x2="28" y2="19" gradientUnits="userSpaceOnUse">
<stop stop-color="#2E3B55"/>
<stop offset="1" stop-color="#212C40"/>
</linearGradient>
</defs>
</svg>
